<svg width="14" height="13" viewBox="0 0 14 13" fill="none" xmlns="http://www.w3.org/2000/svg">
<path d="M13 6.19445C13.0023 7.00104 12.7967 7.79671 12.4 8.51667C11.9296 9.3794 11.2065 10.1051 10.3116 10.6123C9.41675 11.1196 8.38548 11.3885 7.33332 11.3889C6.45341 11.391 5.5854 11.2025 4.79999 10.8389L1 12L2.26666 8.51667C1.86995 7.79671 1.66437 7.00104 1.66667 6.19445C1.66707 5.22997 1.96041 4.28464 2.51381 3.46435C3.06721 2.64406 3.85883 1.9812 4.79999 1.55002C5.5854 1.18636 6.45341 0.997914 7.33332 1.00002H7.66666C9.05622 1.07029 10.3687 1.60793 11.3527 2.50998C12.3368 3.41204 12.9233 4.61513 13 5.8889V6.19445Z" stroke="#5B5B5B" stroke-linecap="round" stroke-linejoin="round"/>
</svg>
