<svg width="0" height="0" class="d-none">
    <symbol width="20" height="18" viewBox="0 0 16 15" xmlns="http://www.w3.org/2000/svg" id="icon-favorite">
        <path d="M8 1l2.163 4.279 4.837.69-3.5 3.329.826 4.702L8 11.779 3.674 14 4.5 9.298 1 5.969l4.837-.69L8 1z"></path>
    </symbol>
    <symbol width="15" height="14" viewBox="0 0 15 14" xmlns="http://www.w3.org/2000/svg" id="icon-ads">
        <path d="M12.6988 5.27393H6.84883C6.13086 5.27393 5.54883 5.82065 5.54883 6.49508V11.9903C5.54883 12.6647 6.13086 13.2114 6.84883 13.2114H12.6988C13.4168 13.2114 13.9988 12.6647 13.9988 11.9903V6.49508C13.9988 5.82065 13.4168 5.27393 12.6988 5.27393Z"/>
        <path d="M2.95 8.93749H2.3C1.95522 8.93749 1.62456 8.80883 1.38076 8.57982C1.13696 8.35081 1 8.04021 1 7.71634V2.22115C1 1.89728 1.13696 1.58668 1.38076 1.35767C1.62456 1.12866 1.95522 1 2.3 1H8.15001C8.49479 1 8.82545 1.12866 9.06925 1.35767C9.31305 1.58668 9.45001 1.89728 9.45001 2.22115V2.83173"/>
    </symbol>
    <symbol width="16" height="15" viewBox="0 0 16 15" xmlns="http://www.w3.org/2000/svg" id="header-favorite">
        <path d="M8 1L10.163 5.27865L15 5.96898L11.5 9.29758L12.326 14L8 11.7787L3.674 14L4.5 9.29758L1 5.96898L5.837 5.27865L8 1Z"/>
    </symbol>
    <symbol width="14" height="13" viewBox="0 0 14 13" xmlns="http://www.w3.org/2000/svg" id="icon-message">
        <path d="M13 6.19445C13.0023 7.00104 12.7967 7.79671 12.4 8.51667C11.9296 9.3794 11.2065 10.1051 10.3116 10.6123C9.41675 11.1196 8.38548 11.3885 7.33332 11.3889C6.45341 11.391 5.5854 11.2025 4.79999 10.8389L1 12L2.26666 8.51667C1.86995 7.79671 1.66437 7.00104 1.66667 6.19445C1.66707 5.22997 1.96041 4.28464 2.51381 3.46435C3.06721 2.64406 3.85883 1.9812 4.79999 1.55002C5.5854 1.18636 6.45341 0.997914 7.33332 1.00002H7.66666C9.05622 1.07029 10.3687 1.60793 11.3527 2.50998C12.3368 3.41204 12.9233 4.61513 13 5.8889V6.19445Z"/>
    </symbol>
    <symbol width="43" height="8" viewBox="0 0 43 8" xmlns="http://www.w3.org/2000/svg" id="arrow-next">
        <path d="M42.3536 4.35355C42.5488 4.15829 42.5488 3.84171 42.3536 3.64645L39.1716 0.464466C38.9763 0.269204 38.6597 0.269204 38.4645 0.464466C38.2692 0.659728 38.2692 0.976311 38.4645 1.17157L41.2929 4L38.4645 6.82843C38.2692 7.02369 38.2692 7.34027 38.4645 7.53553C38.6597 7.7308 38.9763 7.7308 39.1716 7.53553L42.3536 4.35355ZM0 4.5L42 4.5V3.5L0 3.5L0 4.5Z"/>
    </symbol>
    <symbol width="43" height="8" viewBox="0 0 43 8" xmlns="http://www.w3.org/2000/svg" id="arrow-prev">
        <path d="M0.646446 3.64644C0.451183 3.84171 0.451183 4.15829 0.646446 4.35355L3.82843 7.53553C4.02369 7.73079 4.34027 7.73079 4.53553 7.53553C4.7308 7.34027 4.7308 7.02369 4.53553 6.82842L1.70711 4L4.53553 1.17157C4.7308 0.976307 4.7308 0.659725 4.53553 0.464463C4.34027 0.269201 4.02369 0.2692 3.82843 0.464463L0.646446 3.64644ZM43 3.5L1 3.5L1 4.5L43 4.5L43 3.5Z"/>
    </symbol>
</svg>