<svg width="15" height="14" viewBox="0 0 15 14" fill="none" xmlns="http://www.w3.org/2000/svg">
<path d="M12.6988 5.27393H6.84883C6.13086 5.27393 5.54883 5.82065 5.54883 6.49508V11.9903C5.54883 12.6647 6.13086 13.2114 6.84883 13.2114H12.6988C13.4168 13.2114 13.9988 12.6647 13.9988 11.9903V6.49508C13.9988 5.82065 13.4168 5.27393 12.6988 5.27393Z" stroke="#5B5B5B" stroke-linecap="round" stroke-linejoin="round"/>
<path d="M2.95 8.93749H2.3C1.95522 8.93749 1.62456 8.80883 1.38076 8.57982C1.13696 8.35081 1 8.04021 1 7.71634V2.22115C1 1.89728 1.13696 1.58668 1.38076 1.35767C1.62456 1.12866 1.95522 1 2.3 1H8.15001C8.49479 1 8.82545 1.12866 9.06925 1.35767C9.31305 1.58668 9.45001 1.89728 9.45001 2.22115V2.83173" stroke="#5B5B5B" stroke-linecap="round" stroke-linejoin="round"/>
</svg>
